<svg version="1.1" id="Layer_1" xmlns="http://www.w3.org/2000/svg" xmlns:xlink="http://www.w3.org/1999/xlink" x="0px" y="0px"
	 width="100%" viewBox="0 0 1714 642" enable-background="new 0 0 1714 642" xml:space="preserve">
<path fill="#FFFFFF" opacity="1.000000" stroke="none" 
	d="
M1110.000000,643.000000 
	C740.000000,643.000000 370.500000,643.000000 1.000000,643.000000 
	C1.000000,429.000000 1.000000,215.000000 1.000000,1.000000 
	C572.333313,1.000000 1143.666626,1.000000 1715.000000,1.000000 
	C1715.000000,215.000000 1715.000000,429.000000 1715.000000,643.000000 
	C1513.500000,643.000000 1312.000000,643.000000 1110.000000,643.000000 
M426.096863,354.976776 
	C438.762268,354.984528 451.428864,355.092712 464.092407,354.943359 
	C468.302795,354.893738 472.962128,354.678741 474.857117,349.948120 
	C475.849731,347.470154 475.951721,344.517914 475.955872,341.779083 
	C476.019287,299.947540 475.919830,258.115540 476.089935,216.284607 
	C476.114319,210.284561 476.731628,204.138062 478.160980,198.326569 
	C480.451294,189.014984 484.545929,180.941238 494.838379,177.482864 
	C505.387238,173.938293 520.452209,176.903397 524.463074,190.247742 
	C526.911682,198.394562 528.212585,207.039337 528.807861,215.545914 
	C529.369690,223.573776 528.008972,231.715714 528.064636,239.803543 
	C528.198242,259.228302 528.769470,278.649719 528.967651,298.074493 
	C529.127441,313.738892 529.270935,329.412781 528.891113,345.069611 
	C528.686584,353.500305 531.841492,354.477051 538.487427,354.813507 
	C551.121155,355.453125 563.838501,355.505371 576.465454,354.801697 
	C583.596008,354.404297 586.110901,352.490662 586.079346,344.876007 
	C585.910889,304.211700 585.827942,263.544983 586.136536,222.882324 
	C586.203003,214.126190 586.864685,205.059555 589.239197,196.700363 
	C594.455688,178.336090 612.316895,172.084656 628.028809,179.853546 
	C636.915466,184.247620 638.877686,193.716080 638.913574,202.851440 
	C639.099426,250.182114 638.995300,297.513916 639.005676,344.845337 
	C639.007080,351.002869 642.351196,354.845551 648.451294,354.939880 
	C661.114380,355.135651 673.792603,355.301239 686.445251,354.888184 
	C694.305725,354.631561 697.156311,350.936249 697.090332,343.443573 
	C696.591614,286.858032 696.457092,230.269165 695.900635,173.684372 
	C695.782471,161.666443 691.231201,150.828140 683.227356,141.807587 
	C668.227539,124.902290 648.462769,120.725388 627.284729,123.244118 
	C608.982117,125.420868 595.146240,135.812607 585.308594,151.349548 
	C583.604980,154.040085 582.398560,157.045486 580.782776,160.263229 
	C571.948425,139.715393 555.826721,122.623558 528.055481,122.666458 
	C501.619812,122.707298 484.641144,135.086761 473.395447,157.915497 
	C473.000000,150.256927 473.024689,143.104691 472.992493,135.952713 
	C472.964813,129.800156 470.155792,127.019867 463.938171,127.007156 
	C451.938690,126.982620 439.939148,126.996292 427.939636,127.001366 
	C420.475708,127.004517 418.001160,129.512299 418.001007,137.074783 
	C417.999329,206.071976 417.999939,275.069183 418.000122,344.066376 
	C418.000122,351.793091 418.276184,352.199066 426.096863,354.976776 
M345.280640,355.781433 
	C349.980255,356.694672 353.887665,355.292053 357.430328,352.098450 
	C366.098602,344.284149 374.808289,336.510834 383.668396,328.915924 
	C390.382751,323.160400 390.914948,319.636566 385.170166,312.697845 
	C375.472015,300.984039 370.711914,287.877930 370.827942,272.380341 
	C371.066772,240.472748 370.648529,208.549759 369.826782,176.650467 
	C369.544189,165.681107 365.315063,155.447876 358.259735,146.826752 
	C344.064270,129.480835 324.302246,123.016716 303.169189,121.284363 
	C286.856293,119.947136 270.323303,120.190025 254.187302,124.924850 
	C225.027618,133.481232 205.066772,150.677124 197.790436,181.276657 
	C195.902344,189.216721 199.944153,193.358124 207.666580,194.017487 
	C218.601822,194.951187 229.542984,195.859436 240.449951,197.065094 
	C247.942856,197.893356 249.862732,196.287354 252.168671,189.282715 
	C253.839691,184.206726 256.142487,178.695114 259.820709,175.049942 
	C269.086945,165.866943 280.540100,163.217545 293.381042,166.758865 
	C302.543518,169.285690 308.876923,175.037811 310.714294,183.995178 
	C312.285370,191.654160 311.785126,199.763718 311.847412,207.676773 
	C311.856079,208.775467 309.941589,210.712067 308.737732,210.867279 
	C299.172119,212.100479 289.480896,212.510544 279.987213,214.114334 
	C266.929047,216.320328 253.693390,218.335846 241.104919,222.263519 
	C221.592834,228.351410 206.293274,240.547195 197.357437,259.363831 
	C189.875992,275.117889 189.317520,291.973053 192.083832,308.844788 
	C195.837753,331.740082 208.871292,347.156342 231.036606,354.541901 
	C241.607346,358.064087 252.569473,357.023376 263.408356,356.949738 
	C276.537262,356.860535 288.767212,353.059662 299.559021,345.734467 
	C307.096893,340.617981 313.870483,334.375580 321.036255,328.595093 
	C323.508667,332.175293 325.870331,336.525085 329.111542,340.070953 
	C333.993225,345.411469 339.489807,350.189911 345.280640,355.781433 
M802.657532,173.042160 
	C811.433533,166.727676 821.037720,163.708786 831.850891,166.024063 
	C841.145142,168.014099 847.831909,172.764374 851.226257,182.327194 
	C854.305298,191.001892 852.291382,199.675095 852.831055,208.322510 
	C852.882324,209.144302 850.829712,210.716232 849.602051,210.894516 
	C843.459351,211.786469 837.229370,212.093445 831.097839,213.043320 
	C816.994751,215.228104 802.785767,217.024872 788.888916,220.168625 
	C772.644043,223.843521 758.201172,231.910385 747.810303,244.983688 
	C730.469299,266.801178 728.046753,291.810547 735.572327,318.015137 
	C740.416565,334.883057 751.691833,346.160553 767.715027,352.990417 
	C778.498535,357.586853 789.826660,356.896851 801.131592,357.045197 
	C816.780334,357.250549 830.958435,352.814575 843.597717,343.782104 
	C850.062561,339.162201 856.020447,333.832947 861.649292,329.276184 
	C868.072693,336.675323 874.012024,344.069397 880.546021,350.894196 
	C887.670349,358.335602 892.640381,357.625946 899.656250,350.974762 
	C907.516968,343.522736 915.336487,335.807373 924.205444,329.705994 
	C931.752869,324.513763 931.452209,318.970306 926.786377,313.426819 
	C914.838562,299.231720 910.883667,282.871002 911.906067,264.713379 
	C912.439087,255.246262 912.102112,245.723114 911.978943,236.227600 
	C911.714172,215.814041 912.072693,195.354492 910.766174,175.004303 
	C909.720642,158.719040 901.558960,145.571686 888.035950,135.984314 
	C875.113953,126.823059 860.349915,122.264923 844.980103,121.256676 
	C824.366821,119.904457 803.820435,120.745186 784.075195,128.839050 
	C760.004578,138.705933 745.075378,155.956070 739.080933,181.062866 
	C737.326782,188.409531 740.131836,192.757263 747.073547,193.913635 
	C751.105774,194.585327 755.239197,194.642334 759.324707,195.003387 
	C766.833984,195.667038 774.373474,196.109772 781.840271,197.098511 
	C788.492493,197.979385 790.910767,196.021027 793.186340,189.915833 
	C795.342529,184.130905 799.031189,178.917175 802.657532,173.042160 
M1468.000000,307.500000 
	C1468.000000,319.996735 1468.196411,332.497681 1467.928589,344.988678 
	C1467.760132,352.843475 1470.796265,354.422211 1477.146362,354.782288 
	C1489.935303,355.507507 1502.818848,355.468170 1515.614380,354.802887 
	C1522.133911,354.463867 1525.151611,353.637238 1525.107910,344.972687 
	C1524.877441,299.318604 1524.991699,253.662766 1525.005005,208.007523 
	C1525.009033,194.179642 1525.262207,180.378403 1522.065796,166.734726 
	C1518.217163,150.307297 1510.142700,137.148209 1494.933716,128.986511 
	C1483.505005,122.853317 1471.132690,122.521164 1458.620239,122.999496 
	C1450.195435,123.321564 1442.503052,125.925003 1435.269531,130.197845 
	C1424.068237,136.814514 1417.809448,147.405289 1412.127563,158.500122 
	C1411.385864,159.948486 1410.621216,161.385147 1409.867188,162.827240 
	C1409.000000,153.287354 1409.019653,144.153198 1408.992920,135.019180 
	C1408.976318,129.292831 1406.738403,127.022049 1401.063599,127.008530 
	C1389.233154,126.980339 1377.402832,126.999222 1365.572388,127.000267 
	C1357.325073,127.000992 1355.000610,129.294601 1355.000488,137.438248 
	C1354.999756,206.254364 1354.999878,275.070496 1355.000000,343.886597 
	C1355.000000,351.740295 1358.288574,354.979858 1366.355713,354.994812 
	C1377.519653,355.015472 1388.683472,354.978394 1399.847412,355.006226 
	C1410.673096,355.033203 1413.025513,351.120239 1413.064819,342.032593 
	C1413.254517,298.122650 1413.221069,254.202621 1414.308716,210.311996 
	C1414.585571,199.142365 1418.902710,188.379822 1428.640137,180.698410 
	C1439.416138,172.197754 1459.244141,174.416321 1463.903320,191.112671 
	C1466.022217,198.705933 1467.705566,206.692123 1467.818848,214.525650 
	C1468.262207,245.178223 1468.000000,275.841003 1468.000000,307.500000 
M1137.000122,227.677780 
	C1137.674683,242.349304 1137.330688,257.159271 1139.300781,271.654724 
	C1141.412476,287.192871 1147.037598,301.924316 1154.924805,315.681091 
	C1163.586670,330.789001 1175.331177,342.767853 1190.978149,350.357178 
	C1207.024292,358.139954 1224.011475,360.351929 1241.884644,358.171326 
	C1258.528076,356.140717 1273.352661,350.251770 1285.859741,339.476715 
	C1312.200562,316.783722 1322.448975,286.397705 1324.864502,252.892105 
	C1325.930420,238.107925 1324.896973,223.284561 1322.054077,208.621216 
	C1319.048462,193.118378 1314.169800,178.372818 1305.975830,164.808746 
	C1297.188110,150.261993 1285.530518,138.406738 1270.199463,131.197388 
	C1248.078125,120.794975 1224.847656,119.890640 1201.521118,126.944450 
	C1177.446655,134.224411 1161.637573,151.192337 1150.693970,172.936874 
	C1142.229004,189.756744 1138.646973,208.047363 1137.000122,227.677780 
M617.303528,511.097961 
	C626.114868,512.748352 634.875061,514.779724 643.748047,515.970825 
	C662.904663,518.542358 682.075989,522.057373 701.320496,522.660950 
	C726.975952,523.465637 752.769836,524.486145 778.399658,521.022888 
	C791.376343,519.269409 804.397522,517.839111 817.362976,516.009644 
	C843.078796,512.381226 868.118835,505.838165 892.857849,498.069031 
	C923.615845,488.409729 953.357849,476.281158 981.295349,460.142120 
	C994.557373,452.480896 1007.313599,443.906708 1020.011841,435.321533 
	C1027.212036,430.453552 1026.714478,419.802612 1018.948486,416.938049 
	C1014.931763,415.456482 1009.244995,415.954376 1005.153809,417.621674 
	C968.901306,432.395721 932.007385,445.148712 893.626343,453.053497 
	C868.556274,458.216797 843.356262,462.869324 818.067139,466.803223 
	C802.991638,469.148285 787.646606,470.521362 772.395020,470.796997 
	C748.813049,471.223175 725.199097,470.608673 701.614990,469.896393 
	C688.964417,469.514313 676.305054,468.375122 663.726135,466.917542 
	C646.503845,464.921906 629.144226,463.292816 612.221985,459.715698 
	C585.644531,454.097534 559.138855,447.830353 533.046631,440.300171 
	C496.821259,429.845520 461.893951,415.688263 428.091278,398.940552 
	C415.212860,392.559875 402.722656,385.393433 390.082367,378.535614 
	C386.246704,376.454590 382.474487,375.898071 379.335632,379.432098 
	C376.702362,382.396942 377.416718,386.539612 381.791168,390.168274 
	C395.418335,401.472076 409.020691,412.837341 423.130981,423.520630 
	C453.081848,446.197235 485.587646,464.522675 520.013000,479.584503 
	C551.160950,493.212463 583.257935,503.754181 617.303528,511.097961 
M1100.453857,290.998566 
	C1079.628784,281.836609 1057.405762,279.762360 1034.224854,278.862427 
	C1043.522217,265.818665 1052.224976,253.726913 1060.803589,241.547806 
	C1076.480103,219.291855 1092.136719,197.021454 1107.681274,174.673248 
	C1111.814941,168.730179 1114.742310,162.352646 1114.093140,154.669556 
	C1113.617798,149.043762 1114.000366,143.345535 1113.999756,137.679581 
	C1113.998779,129.032669 1110.916504,126.002708 1102.076416,126.001862 
	C1059.081909,125.997757 1016.087341,125.999908 973.092773,126.000488 
	C971.926270,126.000504 970.707153,125.786369 969.602173,126.049088 
	C964.076050,127.362946 961.642517,129.380875 961.877075,134.813492 
	C962.307983,144.793610 961.985596,154.805664 962.005310,164.804352 
	C962.017212,170.850327 964.171448,172.991333 970.261658,172.995010 
	C991.592285,173.007904 1012.922913,172.994644 1034.253540,173.011200 
	C1035.799561,173.012390 1037.345581,173.173065 1039.208618,173.277359 
	C1038.778809,174.228165 1038.650879,174.690308 1038.391235,175.059875 
	C1023.946289,195.617386 1009.473999,216.155609 995.041321,236.721634 
	C985.083374,250.911194 975.007812,265.023224 965.333191,279.404205 
	C961.412415,285.232361 956.213867,291.422333 955.446777,297.903351 
	C953.702393,312.641907 954.075806,327.663940 954.154724,342.567780 
	C954.182800,347.877747 959.645752,350.308716 964.667725,348.063629 
	C968.207031,346.481384 971.728149,344.857849 975.281128,343.306946 
	C1001.222961,331.983429 1028.380737,328.643982 1056.257812,332.142700 
	C1073.629028,334.322876 1090.284546,339.579956 1106.003662,347.510620 
	C1112.572021,350.824402 1117.938965,347.656799 1117.983276,340.412567 
	C1118.048340,329.747650 1118.127808,319.079803 1117.942749,308.417725 
	C1117.857666,303.520142 1116.285522,299.201843 1111.401123,296.753143 
	C1107.932373,295.014160 1104.622925,292.957397 1100.453857,290.998566 
M1003.583374,392.000031 
	C1014.507874,392.333740 1025.543213,391.815125 1036.328613,393.218079 
	C1049.651245,394.951080 1054.707153,398.889374 1052.704956,412.383667 
	C1050.735962,425.654175 1046.882690,438.724091 1042.932495,451.598694 
	C1039.214600,463.716339 1034.183105,475.426514 1030.015381,487.415314 
	C1029.381104,489.239868 1029.549805,492.691193 1030.668091,493.454254 
	C1032.254883,494.537079 1035.613403,494.710541 1037.249512,493.703796 
	C1041.403320,491.147583 1045.525635,488.171356 1048.760986,484.557861 
	C1060.194458,471.787750 1069.043823,457.349609 1075.298096,441.332489 
	C1082.809448,422.096466 1087.808472,402.382202 1086.960083,381.545471 
	C1086.752197,376.438995 1085.175903,372.315399 1079.767944,369.815735 
	C1069.084961,364.877869 1057.664551,363.665405 1046.334961,363.238892 
	C1035.016113,362.812836 1023.602051,364.065186 1012.269897,365.046265 
	C995.960876,366.458313 980.657715,371.515167 966.359497,379.381104 
	C962.106445,381.720886 958.245911,384.907257 954.617615,388.164703 
	C953.588074,389.089111 953.317688,391.962616 953.970886,393.338531 
	C954.587891,394.638306 956.790833,395.499359 958.453796,395.901642 
	C960.178833,396.318878 962.106384,396.088074 963.922485,395.909271 
	C976.821411,394.639465 989.714478,393.310272 1003.583374,392.000031 
z"/>
<path fill="#232F3E" opacity="1.000000" stroke="none" 
	d="
M425.671265,354.860840 
	C418.276184,352.199066 418.000122,351.793091 418.000122,344.066376 
	C417.999939,275.069183 417.999329,206.071976 418.001007,137.074783 
	C418.001160,129.512299 420.475708,127.004517 427.939636,127.001366 
	C439.939148,126.996292 451.938690,126.982620 463.938171,127.007156 
	C470.155792,127.019867 472.964813,129.800156 472.992493,135.952713 
	C473.024689,143.104691 473.000000,150.256927 473.395447,157.915497 
	C484.641144,135.086761 501.619812,122.707298 528.055481,122.666458 
	C555.826721,122.623558 571.948425,139.715393 580.782776,160.263229 
	C582.398560,157.045486 583.604980,154.040085 585.308594,151.349548 
	C595.146240,135.812607 608.982117,125.420868 627.284729,123.244118 
	C648.462769,120.725388 668.227539,124.902290 683.227356,141.807587 
	C691.231201,150.828140 695.782471,161.666443 695.900635,173.684372 
	C696.457092,230.269165 696.591614,286.858032 697.090332,343.443573 
	C697.156311,350.936249 694.305725,354.631561 686.445251,354.888184 
	C673.792603,355.301239 661.114380,355.135651 648.451294,354.939880 
	C642.351196,354.845551 639.007080,351.002869 639.005676,344.845337 
	C638.995300,297.513916 639.099426,250.182114 638.913574,202.851440 
	C638.877686,193.716080 636.915466,184.247620 628.028809,179.853546 
	C612.316895,172.084656 594.455688,178.336090 589.239197,196.700363 
	C586.864685,205.059555 586.203003,214.126190 586.136536,222.882324 
	C585.827942,263.544983 585.910889,304.211700 586.079346,344.876007 
	C586.110901,352.490662 583.596008,354.404297 576.465454,354.801697 
	C563.838501,355.505371 551.121155,355.453125 538.487427,354.813507 
	C531.841492,354.477051 528.686584,353.500305 528.891113,345.069611 
	C529.270935,329.412781 529.127441,313.738892 528.967651,298.074493 
	C528.769470,278.649719 528.198242,259.228302 528.064636,239.803543 
	C528.008972,231.715714 529.369690,223.573776 528.807861,215.545914 
	C528.212585,207.039337 526.911682,198.394562 524.463074,190.247742 
	C520.452209,176.903397 505.387238,173.938293 494.838379,177.482864 
	C484.545929,180.941238 480.451294,189.014984 478.160980,198.326569 
	C476.731628,204.138062 476.114319,210.284561 476.089935,216.284607 
	C475.919830,258.115540 476.019287,299.947540 475.955872,341.779083 
	C475.951721,344.517914 475.849731,347.470154 474.857117,349.948120 
	C472.962128,354.678741 468.302795,354.893738 464.092407,354.943359 
	C451.428864,355.092712 438.762268,354.984528 425.671265,354.860840 
z"/>
<path fill="#232F3E" opacity="1.000000" stroke="none" 
	d="
M345.002808,355.494385 
	C339.489807,350.189911 333.993225,345.411469 329.111542,340.070953 
	C325.870331,336.525085 323.508667,332.175293 321.036255,328.595093 
	C313.870483,334.375580 307.096893,340.617981 299.559021,345.734467 
	C288.767212,353.059662 276.537262,356.860535 263.408356,356.949738 
	C252.569473,357.023376 241.607346,358.064087 231.036606,354.541901 
	C208.871292,347.156342 195.837753,331.740082 192.083832,308.844788 
	C189.317520,291.973053 189.875992,275.117889 197.357437,259.363831 
	C206.293274,240.547195 221.592834,228.351410 241.104919,222.263519 
	C253.693390,218.335846 266.929047,216.320328 279.987213,214.114334 
	C289.480896,212.510544 299.172119,212.100479 308.737732,210.867279 
	C309.941589,210.712067 311.856079,208.775467 311.847412,207.676773 
	C311.785126,199.763718 312.285370,191.654160 310.714294,183.995178 
	C308.876923,175.037811 302.543518,169.285690 293.381042,166.758865 
	C280.540100,163.217545 269.086945,165.866943 259.820709,175.049942 
	C256.142487,178.695114 253.839691,184.206726 252.168671,189.282715 
	C249.862732,196.287354 247.942856,197.893356 240.449951,197.065094 
	C229.542984,195.859436 218.601822,194.951187 207.666580,194.017487 
	C199.944153,193.358124 195.902344,189.216721 197.790436,181.276657 
	C205.066772,150.677124 225.027618,133.481232 254.187302,124.924850 
	C270.323303,120.190025 286.856293,119.947136 303.169189,121.284363 
	C324.302246,123.016716 344.064270,129.480835 358.259735,146.826752 
	C365.315063,155.447876 369.544189,165.681107 369.826782,176.650467 
	C370.648529,208.549759 371.066772,240.472748 370.827942,272.380341 
	C370.711914,287.877930 375.472015,300.984039 385.170166,312.697845 
	C390.914948,319.636566 390.382751,323.160400 383.668396,328.915924 
	C374.808289,336.510834 366.098602,344.284149 357.430328,352.098450 
	C353.887665,355.292053 349.980255,356.694672 345.002808,355.494385 
M279.154419,314.996735 
	C295.084991,311.733490 303.660614,300.724548 308.809326,286.394043 
	C313.192505,274.194275 311.983856,261.408905 311.828949,248.791916 
	C311.817322,247.846863 309.520599,246.195953 308.220215,246.127594 
	C302.579865,245.831085 296.869873,245.543915 291.268799,246.098129 
	C280.634247,247.150391 270.654175,250.519989 262.702209,257.924744 
	C253.846909,266.170624 251.083664,276.897980 252.024872,288.664062 
	C253.248276,303.957672 260.925476,315.143555 279.154419,314.996735 
z"/>
<path fill="#232F3E" opacity="1.000000" stroke="none" 
	d="
M802.351746,173.247208 
	C799.031189,178.917175 795.342529,184.130905 793.186340,189.915833 
	C790.910767,196.021027 788.492493,197.979385 781.840271,197.098511 
	C774.373474,196.109772 766.833984,195.667038 759.324707,195.003387 
	C755.239197,194.642334 751.105774,194.585327 747.073547,193.913635 
	C740.131836,192.757263 737.326782,188.409531 739.080933,181.062866 
	C745.075378,155.956070 760.004578,138.705933 784.075195,128.839050 
	C803.820435,120.745186 824.366821,119.904457 844.980103,121.256676 
	C860.349915,122.264923 875.113953,126.823059 888.035950,135.984314 
	C901.558960,145.571686 909.720642,158.719040 910.766174,175.004303 
	C912.072693,195.354492 911.714172,215.814041 911.978943,236.227600 
	C912.102112,245.723114 912.439087,255.246262 911.906067,264.713379 
	C910.883667,282.871002 914.838562,299.231720 926.786377,313.426819 
	C931.452209,318.970306 931.752869,324.513763 924.205444,329.705994 
	C915.336487,335.807373 907.516968,343.522736 899.656250,350.974762 
	C892.640381,357.625946 887.670349,358.335602 880.546021,350.894196 
	C874.012024,344.069397 868.072693,336.675323 861.649292,329.276184 
	C856.020447,333.832947 850.062561,339.162201 843.597717,343.782104 
	C830.958435,352.814575 816.780334,357.250549 801.131592,357.045197 
	C789.826660,356.896851 778.498535,357.586853 767.715027,352.990417 
	C751.691833,346.160553 740.416565,334.883057 735.572327,318.015137 
	C728.046753,291.810547 730.469299,266.801178 747.810303,244.983688 
	C758.201172,231.910385 772.644043,223.843521 788.888916,220.168625 
	C802.785767,217.024872 816.994751,215.228104 831.097839,213.043320 
	C837.229370,212.093445 843.459351,211.786469 849.602051,210.894516 
	C850.829712,210.716232 852.882324,209.144302 852.831055,208.322510 
	C852.291382,199.675095 854.305298,191.001892 851.226257,182.327194 
	C847.831909,172.764374 841.145142,168.014099 831.850891,166.024063 
	C821.037720,163.708786 811.433533,166.727676 802.351746,173.247208 
M846.167542,244.995895 
	C838.106812,246.008408 829.771240,246.053574 822.046631,248.248825 
	C808.808228,252.011063 797.589905,259.243713 794.722168,273.981140 
	C793.384277,280.856171 792.931396,288.388489 794.257202,295.198517 
	C797.263245,310.638916 811.790161,318.865997 826.605286,313.134583 
	C839.181641,308.269287 845.664856,298.361755 849.979248,286.469635 
	C854.958313,272.745758 852.338501,258.498535 853.103210,243.634995 
	C850.710022,244.161560 848.902466,244.559250 846.167542,244.995895 
z"/>
<path fill="#232F3E" opacity="1.000000" stroke="none" 
	d="
M1468.000000,307.000000 
	C1468.000000,275.841003 1468.262207,245.178223 1467.818848,214.525650 
	C1467.705566,206.692123 1466.022217,198.705933 1463.903320,191.112671 
	C1459.244141,174.416321 1439.416138,172.197754 1428.640137,180.698410 
	C1418.902710,188.379822 1414.585571,199.142365 1414.308716,210.311996 
	C1413.221069,254.202621 1413.254517,298.122650 1413.064819,342.032593 
	C1413.025513,351.120239 1410.673096,355.033203 1399.847412,355.006226 
	C1388.683472,354.978394 1377.519653,355.015472 1366.355713,354.994812 
	C1358.288574,354.979858 1355.000000,351.740295 1355.000000,343.886597 
	C1354.999878,275.070496 1354.999756,206.254364 1355.000488,137.438248 
	C1355.000610,129.294601 1357.325073,127.000992 1365.572388,127.000267 
	C1377.402832,126.999222 1389.233154,126.980339 1401.063599,127.008530 
	C1406.738403,127.022049 1408.976318,129.292831 1408.992920,135.019180 
	C1409.019653,144.153198 1409.000000,153.287354 1409.867188,162.827240 
	C1410.621216,161.385147 1411.385864,159.948486 1412.127563,158.500122 
	C1417.809448,147.405289 1424.068237,136.814514 1435.269531,130.197845 
	C1442.503052,125.925003 1450.195435,123.321564 1458.620239,122.999496 
	C1471.132690,122.521164 1483.505005,122.853317 1494.933716,128.986511 
	C1510.142700,137.148209 1518.217163,150.307297 1522.065796,166.734726 
	C1525.262207,180.378403 1525.009033,194.179642 1525.005005,208.007523 
	C1524.991699,253.662766 1524.877441,299.318604 1525.107910,344.972687 
	C1525.151611,353.637238 1522.133911,354.463867 1515.614380,354.802887 
	C1502.818848,355.468170 1489.935303,355.507507 1477.146362,354.782288 
	C1470.796265,354.422211 1467.760132,352.843475 1467.928589,344.988678 
	C1468.196411,332.497681 1468.000000,319.996735 1468.000000,307.000000 
z"/>
<path fill="#232F3E" opacity="1.000000" stroke="none" 
	d="
M1137.000000,227.199142 
	C1138.646973,208.047363 1142.229004,189.756744 1150.693970,172.936874 
	C1161.637573,151.192337 1177.446655,134.224411 1201.521118,126.944450 
	C1224.847656,119.890640 1248.078125,120.794975 1270.199463,131.197388 
	C1285.530518,138.406738 1297.188110,150.261993 1305.975830,164.808746 
	C1314.169800,178.372818 1319.048462,193.118378 1322.054077,208.621216 
	C1324.896973,223.284561 1325.930420,238.107925 1324.864502,252.892105 
	C1322.448975,286.397705 1312.200562,316.783722 1285.859741,339.476715 
	C1273.352661,350.251770 1258.528076,356.140717 1241.884644,358.171326 
	C1224.011475,360.351929 1207.024292,358.139954 1190.978149,350.357178 
	C1175.331177,342.767853 1163.586670,330.789001 1154.924805,315.681091 
	C1147.037598,301.924316 1141.412476,287.192871 1139.300781,271.654724 
	C1137.330688,257.159271 1137.674683,242.349304 1137.000000,227.199142 
M1209.034546,301.274353 
	C1209.566040,301.909119 1210.203247,302.482361 1210.613281,303.187683 
	C1219.819824,319.028137 1242.775879,316.455750 1251.359985,303.391296 
	C1260.266724,289.835480 1262.179321,274.599274 1262.807739,259.214600 
	C1263.381592,245.164719 1262.291870,231.049454 1262.013550,216.961456 
	C1261.799683,206.135849 1259.549316,195.745697 1256.187744,185.475342 
	C1251.928467,172.462372 1243.308472,167.978378 1234.190308,167.065125 
	C1221.882690,165.832428 1212.590576,170.767090 1207.035278,181.954971 
	C1201.210693,193.685730 1199.192871,206.387161 1199.107788,219.273193 
	C1198.998291,235.855789 1199.154785,252.475281 1200.180664,269.017853 
	C1200.859253,279.958282 1203.256104,290.794434 1209.034546,301.274353 
z"/>
<path fill="#F8991D" opacity="1.000000" stroke="none" 
	d="
M616.878174,511.056213 
	C583.257935,503.754181 551.160950,493.212463 520.013000,479.584503 
	C485.587646,464.522675 453.081848,446.197235 423.130981,423.520630 
	C409.020691,412.837341 395.418335,401.472076 381.791168,390.168274 
	C377.416718,386.539612 376.702362,382.396942 379.335632,379.432098 
	C382.474487,375.898071 386.246704,376.454590 390.082367,378.535614 
	C402.722656,385.393433 415.212860,392.559875 428.091278,398.940552 
	C461.893951,415.688263 496.821259,429.845520 533.046631,440.300171 
	C559.138855,447.830353 585.644531,454.097534 612.221985,459.715698 
	C629.144226,463.292816 646.503845,464.921906 663.726135,466.917542 
	C676.305054,468.375122 688.964417,469.514313 701.614990,469.896393 
	C725.199097,470.608673 748.813049,471.223175 772.395020,470.796997 
	C787.646606,470.521362 802.991638,469.148285 818.067139,466.803223 
	C843.356262,462.869324 868.556274,458.216797 893.626343,453.053497 
	C932.007385,445.148712 968.901306,432.395721 1005.153809,417.621674 
	C1009.244995,415.954376 1014.931763,415.456482 1018.948486,416.938049 
	C1026.714478,419.802612 1027.212036,430.453552 1020.011841,435.321533 
	C1007.313599,443.906708 994.557373,452.480896 981.295349,460.142120 
	C953.357849,476.281158 923.615845,488.409729 892.857849,498.069031 
	C868.118835,505.838165 843.078796,512.381226 817.362976,516.009644 
	C804.397522,517.839111 791.376343,519.269409 778.399658,521.022888 
	C752.769836,524.486145 726.975952,523.465637 701.320496,522.660950 
	C682.075989,522.057373 662.904663,518.542358 643.748047,515.970825 
	C634.875061,514.779724 626.114868,512.748352 616.878174,511.056213 
z"/>
<path fill="#232F3E" opacity="1.000000" stroke="none" 
	d="
M1100.848145,291.020508 
	C1104.622925,292.957397 1107.932373,295.014160 1111.401123,296.753143 
	C1116.285522,299.201843 1117.857666,303.520142 1117.942749,308.417725 
	C1118.127808,319.079803 1118.048340,329.747650 1117.983276,340.412567 
	C1117.938965,347.656799 1112.572021,350.824402 1106.003662,347.510620 
	C1090.284546,339.579956 1073.629028,334.322876 1056.257812,332.142700 
	C1028.380737,328.643982 1001.222961,331.983429 975.281128,343.306946 
	C971.728149,344.857849 968.207031,346.481384 964.667725,348.063629 
	C959.645752,350.308716 954.182800,347.877747 954.154724,342.567780 
	C954.075806,327.663940 953.702393,312.641907 955.446777,297.903351 
	C956.213867,291.422333 961.412415,285.232361 965.333191,279.404205 
	C975.007812,265.023224 985.083374,250.911194 995.041321,236.721634 
	C1009.473999,216.155609 1023.946289,195.617386 1038.391235,175.059875 
	C1038.650879,174.690308 1038.778809,174.228165 1039.208618,173.277359 
	C1037.345581,173.173065 1035.799561,173.012390 1034.253540,173.011200 
	C1012.922913,172.994644 991.592285,173.007904 970.261658,172.995010 
	C964.171448,172.991333 962.017212,170.850327 962.005310,164.804352 
	C961.985596,154.805664 962.307983,144.793610 961.877075,134.813492 
	C961.642517,129.380875 964.076050,127.362946 969.602173,126.049088 
	C970.707153,125.786369 971.926270,126.000504 973.092773,126.000488 
	C1016.087341,125.999908 1059.081909,125.997757 1102.076416,126.001862 
	C1110.916504,126.002708 1113.998779,129.032669 1113.999756,137.679581 
	C1114.000366,143.345535 1113.617798,149.043762 1114.093140,154.669556 
	C1114.742310,162.352646 1111.814941,168.730179 1107.681274,174.673248 
	C1092.136719,197.021454 1076.480103,219.291855 1060.803589,241.547806 
	C1052.224976,253.726913 1043.522217,265.818665 1034.224854,278.862427 
	C1057.405762,279.762360 1079.628784,281.836609 1100.848145,291.020508 
z"/>
<path fill="#F8991D" opacity="1.000000" stroke="none" 
	d="
M1003.096375,392.000000 
	C989.714478,393.310272 976.821411,394.639465 963.922485,395.909271 
	C962.106384,396.088074 960.178833,396.318878 958.453796,395.901642 
	C956.790833,395.499359 954.587891,394.638306 953.970886,393.338531 
	C953.317688,391.962616 953.588074,389.089111 954.617615,388.164703 
	C958.245911,384.907257 962.106445,381.720886 966.359497,379.381104 
	C980.657715,371.515167 995.960876,366.458313 1012.269897,365.046265 
	C1023.602051,364.065186 1035.016113,362.812836 1046.334961,363.238892 
	C1057.664551,363.665405 1069.084961,364.877869 1079.767944,369.815735 
	C1085.175903,372.315399 1086.752197,376.438995 1086.960083,381.545471 
	C1087.808472,402.382202 1082.809448,422.096466 1075.298096,441.332489 
	C1069.043823,457.349609 1060.194458,471.787750 1048.760986,484.557861 
	C1045.525635,488.171356 1041.403320,491.147583 1037.249512,493.703796 
	C1035.613403,494.710541 1032.254883,494.537079 1030.668091,493.454254 
	C1029.549805,492.691193 1029.381104,489.239868 1030.015381,487.415314 
	C1034.183105,475.426514 1039.214600,463.716339 1042.932495,451.598694 
	C1046.882690,438.724091 1050.735962,425.654175 1052.704956,412.383667 
	C1054.707153,398.889374 1049.651245,394.951080 1036.328613,393.218079 
	C1025.543213,391.815125 1014.507874,392.333740 1003.096375,392.000000 
z"/>
<path fill="#FFFFFF" opacity="1.000000" stroke="none" 
	d="
M278.711243,314.998230 
	C260.925476,315.143555 253.248276,303.957672 252.024872,288.664062 
	C251.083664,276.897980 253.846909,266.170624 262.702209,257.924744 
	C270.654175,250.519989 280.634247,247.150391 291.268799,246.098129 
	C296.869873,245.543915 302.579865,245.831085 308.220215,246.127594 
	C309.520599,246.195953 311.817322,247.846863 311.828949,248.791916 
	C311.983856,261.408905 313.192505,274.194275 308.809326,286.394043 
	C303.660614,300.724548 295.084991,311.733490 278.711243,314.998230 
z"/>
<path fill="#FFFFFF" opacity="1.000000" stroke="none" 
	d="
M846.631226,244.976425 
	C848.902466,244.559250 850.710022,244.161560 853.103210,243.634995 
	C852.338501,258.498535 854.958313,272.745758 849.979248,286.469635 
	C845.664856,298.361755 839.181641,308.269287 826.605286,313.134583 
	C811.790161,318.865997 797.263245,310.638916 794.257202,295.198517 
	C792.931396,288.388489 793.384277,280.856171 794.722168,273.981140 
	C797.589905,259.243713 808.808228,252.011063 822.046631,248.248825 
	C829.771240,246.053574 838.106812,246.008408 846.631226,244.976425 
z"/>
<path fill="#FFFFFF" opacity="1.000000" stroke="none" 
	d="
M1208.987427,300.900085 
	C1203.256104,290.794434 1200.859253,279.958282 1200.180664,269.017853 
	C1199.154785,252.475281 1198.998291,235.855789 1199.107788,219.273193 
	C1199.192871,206.387161 1201.210693,193.685730 1207.035278,181.954971 
	C1212.590576,170.767090 1221.882690,165.832428 1234.190308,167.065125 
	C1243.308472,167.978378 1251.928467,172.462372 1256.187744,185.475342 
	C1259.549316,195.745697 1261.799683,206.135849 1262.013550,216.961456 
	C1262.291870,231.049454 1263.381592,245.164719 1262.807739,259.214600 
	C1262.179321,274.599274 1260.266724,289.835480 1251.359985,303.391296 
	C1242.775879,316.455750 1219.819824,319.028137 1210.613281,303.187683 
	C1210.203247,302.482361 1209.566040,301.909119 1208.987427,300.900085 
z"/>
</svg>