<?xml version="1.0" encoding="UTF-8"?>
<svg id="_レイヤー_2" data-name="レイヤー 2" xmlns="http://www.w3.org/2000/svg" viewBox="0 0 6110 2048.37">
  <defs>
    <style>
      .cls-1 {
        fill: #444f4b;
      }

      .cls-2 {
        fill: #308d1c;
      }

      .cls-3 {
        fill: #308e1c;
      }

      .cls-4 {
        fill: #161d26;
      }

      .cls-5 {
        fill: #63ab34;
      }

      .cls-6 {
        fill: #315721;
      }

      .cls-7 {
        fill: #648e1c;
      }

      .cls-8 {
        fill: #aac90c;
      }

      .cls-9 {
        fill: #deaf09;
      }

      .cls-10 {
        fill: #ff6200;
      }

      .cls-11 {
        fill: #9eb009;
      }
    </style>
  </defs>
  <g id="_レイヤー_1-2" data-name="レイヤー 1">
    <g>
      <path class="cls-4" d="M1520,.37l42.02,6.98c80.43,17.71,142.36,74.43,180.32,145.68,5.2,9.75,9.02,23.79,14.04,31.95,1.37,2.23,1.5,3.27,4.65,3.55,4.32.29,6.48-2.21,8.98-5.14,9.46-11.09,19.04-30.82,28.36-43.64,46.21-63.64,104.92-114.85,183.61-132.39,12.61-2.81,25.58-3.72,38.02-6.98,16.36.84,33.78-1.15,50,0,184.94,13.07,268.01,196.69,276.08,360.92l-1.62,682.55c-5.25,11.76-12.48,15.87-24.46,18.54h-212c-14.81-3.29-24.11-8.46-26-25-5.34-198.94,7.1-401.57.08-600.08-3.16-89.55-19.43-181-124.08-192.92-12.42-1.41-13.45-1.43-26,0-116.28,13.2-129.89,118.46-133.92,215.08-8,191.86,1.61,385.67-2.04,577.96-2.71,15.13-11.9,21.81-26.05,24.95h-212c-14.81-3.29-24.11-8.46-26-25-5.34-198.94,7.1-401.57.08-600.08-3.16-89.55-19.43-181-124.08-192.92-12.42-1.41-13.45-1.43-26,0-116.28,13.2-129.89,118.46-133.92,215.08-8,191.86,1.61,385.67-2.04,577.96-2.71,15.13-11.9,21.81-26.05,24.95h-212c-11.62-2.58-20.64-5.95-24.65-18.35l.19-1001.12c6.15-12.92,15.34-19.1,29.49-20.51,52.35-5.23,112.81,3.91,166.05-.09,16.26.38,27.48,10.19,33.03,24.97l26.31,127.69c1.97,5.34,9.09,4.56,11.38.18,27.69-70.09,77.69-131.32,149.72-158.27,20.77-7.77,48.44-14.84,70.49-16.51h50Z"/>
      <path class="cls-10" d="M2264,1740.37c7.53,3.7,19.17,1.98,28,2,11.97.03,24.03,0,36,0h142c12.64,0,25.36.03,38,0,8.83-.02,20.47,1.7,28-2,280.1-.69,636.66-72.37,899.04-169.96,83.85-31.19,155.46-71.39,235.61-106.39,25.76-11.25,63.03-27.78,86.42-3.72,45.67,46.95-29.87,117.03-64.02,148.12-298.21,271.51-842.58,432.12-1241.05,435.95-8.86.09-20.8-1.74-28,2-14.18.04-30.54-1.71-44,2h-72c-13.46-3.71-29.83-1.96-44-2-7.2-3.75-19.14-1.91-28-2-86.89-.89-178.67-11.49-264.67-24.33-452.95-67.65-898.81-266.87-1198.37-619.63-31.75-37.39-93.69-110.34-92.2-160.7.75-25.25,18.76-43.04,44.2-41.34,42.98,2.87,142.6,91.28,182.41,119.63,319.5,227.51,696.1,349.27,1083.91,400.09,87.86,11.51,184.22,22.12,272.72,22.28Z"/>
      <path class="cls-4" d="M2950,.37c222.57,12.55,342.18,149.65,352.08,368.92v662.16c-1.8,17.29-9.44,26.98-26.08,30.92h-176c-24.39-4.58-27.24-15.64-33.02-37.98-9.24-35.69-14.08-73.94-23.15-109.83-3.51-.54-8.41-1.1-10.84,1.79-3.01,3.58-10.76,24.55-14.64,31.36-45.32,79.4-123.59,132.55-216.34,136.66-9.25.41-18.73,0-28,0-8.61,0-17.41.36-26,0-142.41-5.91-245.58-109.53-267.42-247.58-40.74-257.57,151.77-418.5,393.42-430.42,4.43-.22,11.21,1.61,14-2,8.64-.09,17.36.01,26,0,12.64-.02,25.36-.02,38,0,8.64.01,17.36-.11,26,0,2.22,3.47,8.21,1.8,12,2,15.49.82,30.75,3.42,45.99,5.99,3.18-83.7-9.18-194.58-109.49-211.49-70.97-11.97-134.23,13.68-164.84,80.16-12.63,27.42-13.68,74.31-54.4,69.08-54.57-14.04-119.98-15.39-173.29-30.7-44.75-12.85-25.13-57.59-13.46-89.53,53-144.99,199.57-222.46,348.66-227.42l4.84-2.09h76ZM2946,548.37c-88.77,4.61-169.66,51.58-190.63,142.37-19.66,85.1,6.32,190.46,108.63,195.63,6.42,3.4,19.99,3.33,26,0,146.95-8.34,149.88-221.92,146.01-329.01-.11-2.5-.88-3.85-3.34-4.66-8.69-2.88-30.58-3.85-40.67-4.33-13.61-3.34-32.39-3.34-46,0Z"/>
      <path class="cls-4" d="M474,.37l68.37,8.63c180.51,32.85,273.19,168.67,283.72,346.28l-1.62,688.55c-5.25,11.76-12.48,15.87-24.46,18.54h-176c-13.29-2.95-21.35-7.04-27-20l-27.38-124.62c-1.46-4.4-6.35-3.56-10.34-3.49-38.49,96.83-127.71,165.68-233.28,170.11-17.13.72-36.85.67-54,0-148.84-5.82-257.94-124.35-268-270-.47-6.73,2.13-15.36-4-20v-42h4c.15-2.65-.12-5.34,0-8,.22-4.64-.3-9.37,0-14,13.17-204.23,206.93-314.79,394-324,4.42-.22,11.21,1.61,14-2,8.64-.09,17.36.01,26,0,13.31-.02,26.69-.02,40,0,7.98.01,16.02-.08,24,0,2.79,3.63,9.57,1.75,14,2,15.55.86,30.67,3.68,45.99,6-1.26-67.99-2.05-157.64-68.65-196.34-76.9-44.69-176.4-8.95-210.3,72.37-12.07,28.94-9.87,65.53-51.8,61.71-54.65-13.89-117.48-15.96-171.25-30.73-36.19-9.94-30.58-34.47-22.51-64.54C80.16,95.75,237.41,6.39,395.16,2.45l4.84-2.09h74ZM472,548.37c-91.36,3.76-174.1,53.98-193.07,147.93-16.89,83.62,9.8,184.41,109.07,190.07,6.42,3.4,19.99,3.33,26,0,89.97-5.13,126.01-87.52,139.37-165.63,9.29-54.28,7.57-110.06,8.72-165.05-1.02-4.32-37.6-6.99-44.09-7.32-13.61-3.34-32.39-3.34-46,0Z"/>
      <path class="cls-4" d="M5822,.37c4.09,3.95,12.26,1.52,18,2,152.71,12.84,244.03,157.33,263.68,297.32l6.32,54.68v688c-6.09,12.52-10.66,16.84-24,20h-214c-15.41-3.42-23.91-10.63-26.01-26.99l.09-626.09c-5.45-80.98-38.95-159.18-130.08-164.92-4.56-3.15-15.22-2.6-21.24-2.15-3.61.27-5.9,2.04-6.76,2.15-118.55,14.05-135.53,114.53-139.92,215.08-8.38,191.79,1.9,385.72-2.04,577.96-2.71,15.13-11.9,21.81-26.05,24.95h-212c-11.62-2.58-20.64-5.95-24.65-18.35-2.12-333.36-2.5-667.83.19-1001.12,6.15-12.92,15.34-19.1,29.49-20.51,52.35-5.23,112.81,3.91,166.05-.09,16.26.38,27.48,10.19,33.03,24.97l26.31,127.69c2.09,5.64,8.18,4.33,11.38.18,5.01-6.49,12.55-28.51,17.87-38.12,35.84-64.68,95.25-113.66,168.32-129.68l40.02-6.98h46Z"/>
      <path class="cls-4" d="M4724,.37c419.62,41.87,533.19,601.43,313.63,904.63-72.69,100.38-186.99,174.61-313.63,179.37-19.16.72-40.83.71-60,0-238.23-8.84-389.65-234.87-415.74-453.26-32.8-274.47,105.32-610.87,415.74-630.74h60ZM4682,214.37c-128.11,8.32-158,181.56-162.1,282.9-4.64,114.73,4.46,364.12,161.01,375.19,185.63,13.12,195.2-257.53,189.17-385.17-4.75-100.7-39.4-264.81-164.08-272.92-5.34-3.33-18.26-3.41-24,0Z"/>
      <path class="cls-8" d="M2424,2046.37v2h-44c13.46-3.71,29.82-1.96,44-2Z"/>
      <path class="cls-8" d="M2308,2048.37h-44v-2c14.17.04,30.54-1.71,44,2Z"/>
      <path class="cls-5" d="M4,814.37H0v-20c6.13,4.64,3.53,13.27,4,20Z"/>
      <path class="cls-6" d="M4,744.37H0v-12l4-2c-.3,4.63.22,9.36,0,14Z"/>
      <path class="cls-5" d="M5840,.37v2c-5.74-.48-13.91,1.95-18-2h18Z"/>
      <path class="cls-1" d="M4,744.37c-.13,2.66.15,5.35,0,8.01H0v-8.01h4Z"/>
      <path class="cls-4" d="M3470,24.37h676c11.4,1.56,22.7,17.88,24.05,28.95-3.95,61.85,8.44,128.84-7.66,188.43l-394.37,543.63c10.01.18,19.95-2.22,29.99-3.01,3.78-.3,9.76,1.54,12-2,23.9-.5,48.08-.18,72,0,3.32,3.56,10.99,1.96,16,2,4.62.04,9.4-.32,14,0,1.71,3.24,6.8,1.88,10,2,73.7,7.08,168.15,27.69,234.71,60.29,17.86,8.75,30.97,19.29,33.3,40.7,3.7,34.1,3.42,115.62-.04,149.99-1.56,15.56-5.06,23.35-19.98,27.02h-14c-22.01-4.69-44.75-15.75-66.47-22.53-57.62-18.01-121.2-34.62-181.53-39.47-3.51-3.16-7.88-1.9-12-2s-8,.02-12,0c-3.95-3.62-12.36-1.96-18-2-28.62-.19-57.38-.18-86,0-5.64.03-14.06-1.62-18,2-4.66.02-9.34-.09-14,0-4.12.08-8.49-1.15-12,2-59.65,4.32-122.59,18.67-180,35-22.72,6.47-77.41,28.88-97,26.99-14-1.35-21.56-11.47-23.01-24.99-5.71-53.33,3.85-117.08.52-171.49,2.62-13.06,8.34-25.21,15.85-36.15l423.63-593.37.99-4.01h-404.99c-16.59-3.67-24.53-11.43-26.08-28.91-4.33-48.95,3.3-104.32.2-153.96,3.59-12.21,10.42-22.82,23.88-25.12Z"/>
      <path class="cls-10" d="M3818,1316.37c-2.08-3.32-7.59-1.99-10.97-2.03-16.65-.21-33.4-.18-50.06,0-3.38.04-8.9-1.28-10.97,2.03-31.16,1.02-63.79,4.16-94.72,8.28-40.7,5.43-82.99,17.91-123.28,19.72-10,.45-22.06.58-32,0-15.34-.9-24.87-3.47-33.68-17.32-26.55-41.74,33.29-77.79,63.09-96.26,146.07-90.51,342.38-115.82,506.58-63.41,107.87,34.43,116.27,86.67,105.99,193.97-16.06,167.55-108.67,325.4-242.19,425.81-27.11,20.39-74,53.1-100.67,15.08-16.35-23.32-1.62-53.48,9.83-75.92,15.74-30.82,37.52-60.77,54.08-91.92,28.59-53.78,57.58-119.37,73.95-178.05,7.78-27.89,21.16-79.67,5.42-105.41-16.84-27.54-90.58-33.44-120.41-34.59Z"/>
      <path class="cls-3" d="M3472,232.37h404.99s-.99,4-.99,4c-2.08-3.32-7.59-1.99-10.97-2.03-128.71-1.59-257.54,1.14-386.26.18-2.8,1.1-5.51-1.87-6.76-2.14Z"/>
      <path class="cls-3" d="M6086,1062.37c-1.32.31-3.93,3.23-6.76,2.15-64.71-4.59-136.65,5.58-200.47,0-3.88-.34-5.1-1.78-6.76-2.14h214Z"/>
      <path class="cls-3" d="M1770,1062.37c-1.66.37-2.89,1.81-6.76,2.14-63.18,5.53-134.41-4.55-198.47,0-2.8,1.1-5.51-1.87-6.76-2.14h212Z"/>
      <path class="cls-3" d="M5520,1062.37c-1.66.37-2.89,1.81-6.76,2.14-63.18,5.53-134.41-4.55-198.47,0-2.8,1.1-5.51-1.87-6.76-2.14h212Z"/>
      <path class="cls-3" d="M1220,1062.37c-1.66.37-2.89,1.81-6.76,2.14-63.18,5.53-134.41-4.55-198.47,0-2.8,1.1-5.51-1.87-6.76-2.14h212Z"/>
      <path class="cls-3" d="M2320,1062.37c-1.66.37-2.89,1.81-6.76,2.14-63.19,5.53-134.41-4.55-198.47,0-2.8,1.1-5.51-1.87-6.76-2.14h212Z"/>
      <path class="cls-3" d="M800,1062.37c-47.49,10.55-118.83-3.86-169.24,2.14-2.8,1.1-5.51-1.87-6.76-2.14h176Z"/>
      <path class="cls-3" d="M3276,1062.37c-1.32.31-3.93,3.23-6.76,2.15-52.38-5.16-119,7.3-169.24-2.15h176Z"/>
      <path class="cls-11" d="M2470,1742.37h-142c47.3.03,94.7.02,142,0Z"/>
      <path class="cls-9" d="M3818,1316.37c-23.03-.89-48.93-.76-72,0,2.08-3.31,7.59-2,10.97-2.03,16.65-.18,33.4-.21,50.06,0,3.38.04,8.89-1.28,10.97,2.03Z"/>
      <path class="cls-3" d="M4724,1084.37c-15.14,3.51-33.23,2.2-49.03,2.03-3.38-.04-8.89,1.28-10.97-2.03,19.17.71,40.84.72,60,0Z"/>
      <path class="cls-2" d="M326,1084.37c-2.08,3.31-7.59,2-10.97,2.03-13.76.14-29.98,1.5-43.03-2.03,17.15.67,36.87.72,54,0Z"/>
      <path class="cls-7" d="M2952,404.37c-12.64-.02-25.36-.02-38,0,10.89-3.36,27.26-3.35,38,0Z"/>
      <path class="cls-9" d="M3528,1344.37c-8.11,3.33-23.47,3.38-32,0,9.94.58,22,.45,32,0Z"/>
      <path class="cls-3" d="M2802,1084.37c-7.52,3.68-19.19,2-28,2v-2c9.27,0,18.75.41,28,0Z"/>
      <path class="cls-11" d="M2292,1742.37c-8.83-.02-20.47,1.7-28-2,8.83.02,20.46-1.7,28,2Z"/>
      <path class="cls-2" d="M5716,244.37c-9.24-.58-18.74.41-28,0,.86-.1,3.15-1.87,6.76-2.15,6.02-.45,16.68-1,21.24,2.15Z"/>
      <path class="cls-11" d="M2536,1740.37c-7.53,3.7-19.17,1.98-28,2,7.54-3.7,19.17-1.98,28-2Z"/>
      <path class="cls-9" d="M2264,2046.37c-8.83-.02-20.47,1.7-28-2,8.86.09,20.8-1.75,28,2Z"/>
      <path class="cls-9" d="M2452,2044.37c-7.53,3.7-19.17,1.98-28,2,7.2-3.74,19.14-1.91,28-2Z"/>
      <path class="cls-3" d="M2774,1084.37v2c-8.2,0-19.36,1.67-26-2,8.59.36,17.39,0,26,0Z"/>
      <path class="cls-3" d="M1958,244.37h-26c12.55-1.43,13.58-1.41,26,0Z"/>
      <path class="cls-3" d="M1408,244.37h-26c12.55-1.43,13.58-1.41,26,0Z"/>
      <path class="cls-3" d="M3780,996.37c-3.94,3.61-12.37,1.97-18,2,3.94-3.62,12.36-1.97,18-2Z"/>
      <path class="cls-2" d="M3884,998.37c-5.64-.03-14.05,1.62-18-2,5.64.04,14.05-1.62,18,2Z"/>
      <path class="cls-7" d="M3898,782.37c-5.01-.04-12.68,1.56-16-2,5.01.04,12.68-1.56,16,2Z"/>
      <path class="cls-3" d="M4170,1062.37c-1.8.44-2.89,2.27-7,2.27s-5.42-1.94-7-2.27h14Z"/>
      <path class="cls-7" d="M2888,404.37c-2.79,3.61-9.57,1.78-14,2,2.72-3.48,9.62-1.95,14-2Z"/>
      <path class="cls-7" d="M3810,780.37c-2.24,3.54-8.22,1.7-12,2,3.51-3.15,7.88-1.91,12-2Z"/>
      <path class="cls-3" d="M3908,1000.37c-3.77-.3-9.76,1.55-12-2,4.12.1,8.49-1.16,12,2Z"/>
      <path class="cls-2" d="M3748,998.37c-2.23,3.52-8.22,1.73-12,2,3.51-3.15,7.88-1.92,12-2Z"/>
      <path class="cls-7" d="M2990,406.37c-3.79-.2-9.78,1.47-12-2,3.77.05,9.83-1.35,12,2Z"/>
      <path class="cls-7" d="M3922,784.37c-3.2-.12-8.29,1.24-10-2,4.44.31,8.51,1.86,10,2Z"/>
      <path class="cls-2" d="M2992,548.37c-14.3-.68-31.73-.74-46,0,13.61-3.34,32.39-3.34,46,0Z"/>
      <path class="cls-7" d="M2890,886.37c-6.01,3.33-19.58,3.4-26,0,8.12.41,17.9.46,26,0Z"/>
      <path class="cls-2" d="M518,548.37c-14.42-.72-31.53-.6-46,0,13.61-3.34,32.39-3.34,46,0Z"/>
      <path class="cls-7" d="M478,404.37c-13.31-.02-26.69-.02-40,0,11.62-3.36,28.54-3.34,40,0Z"/>
      <path class="cls-7" d="M414,886.37c-6.01,3.33-19.58,3.4-26,0,8.04.46,17.96.46,26,0Z"/>
      <path class="cls-7" d="M516,406.37c-4.43-.25-11.21,1.63-14-2,4.38.04,11.28-1.48,14,2Z"/>
      <path class="cls-7" d="M412,404.37c-2.79,3.61-9.58,1.78-14,2,2.72-3.48,9.62-1.95,14-2Z"/>
      <path class="cls-3" d="M4706,214.37c-7.28-.47-16.72-.47-24,0,5.74-3.41,18.66-3.33,24,0Z"/>
    </g>
  </g>
</svg>