<?xml version="1.0" encoding="UTF-8"?>
<svg id="_レイヤー_2" data-name="レイヤー 2" xmlns="http://www.w3.org/2000/svg" xmlns:xlink="http://www.w3.org/1999/xlink" viewBox="0 0 468.61 64.14">
  <defs>
    <style>
      .cls-1 {
        clip-rule: evenodd;
      }

      .cls-1, .cls-2, .cls-3 {
        fill: #040000;
      }

      .cls-4 {
        clip-path: url(#clippath-1);
      }

      .cls-4, .cls-5 {
        fill: none;
      }

      .cls-3 {
        fill-rule: evenodd;
      }

      .cls-5 {
        clip-path: url(#clippath);
      }
    </style>
    <clipPath id="clippath">
      <path class="cls-1" d="m453.73,62.5l-8.43-20.12-8.34,20.12h-14.36l14.96-31.9-13.76-28.97h14.36l7.48,18.48,7.57-18.48h14.1l-13.84,28.89,15.13,31.98h-14.87Zm-45.15-30.61c0-2.64-.2-5.09-.6-7.35-.4-2.26-.99-4.23-1.76-5.89-.77-1.66-1.73-2.97-2.88-3.91s-2.49-1.42-4.04-1.42-2.91.47-4.08,1.42c-1.18.95-2.15,2.25-2.92,3.91-.77,1.66-1.35,3.63-1.72,5.89-.37,2.26-.56,4.71-.56,7.35s.19,5.1.56,7.39c.37,2.29.95,4.27,1.72,5.93.77,1.66,1.75,2.98,2.92,3.95,1.17.97,2.54,1.46,4.08,1.46s2.89-.49,4.04-1.46,2.11-2.29,2.88-3.95c.77-1.66,1.36-3.64,1.76-5.93.4-2.29.6-4.76.6-7.39Zm14.1,0c0,4.81-.54,9.21-1.63,13.2-1.09,3.98-2.64,7.38-4.64,10.19-2.01,2.81-4.46,4.99-7.35,6.53-2.89,1.55-6.15,2.32-9.76,2.32s-6.86-.77-9.76-2.32c-2.89-1.55-5.34-3.73-7.35-6.53-2.01-2.81-3.55-6.2-4.64-10.19-1.09-3.98-1.63-8.38-1.63-13.2s.53-9.19,1.59-13.11c1.06-3.93,2.59-7.28,4.6-10.06s4.46-4.93,7.35-6.45c2.89-1.52,6.18-2.28,9.84-2.28s6.86.76,9.76,2.28c2.89,1.52,5.34,3.67,7.35,6.45,2.01,2.78,3.55,6.13,4.64,10.06,1.09,3.93,1.63,8.3,1.63,13.11Zm-64.07,11.95c0-1.38-.21-2.54-.64-3.48-.43-.95-1-1.72-1.72-2.32-.72-.6-1.52-1.05-2.41-1.33s-1.76-.43-2.62-.43h-4.99v14.79h5.16c2.01,0,3.71-.6,5.12-1.81,1.4-1.2,2.11-3.01,2.11-5.42Zm-1.12-24.33c0-2.35-.66-4.01-1.98-4.99s-2.87-1.46-4.64-1.46h-4.64v13.15h4.73c1.66,0,3.17-.52,4.51-1.55,1.35-1.03,2.02-2.75,2.02-5.16Zm14.19,25.62c0,3.27-.53,6-1.59,8.21-1.06,2.21-2.45,3.98-4.17,5.33-1.72,1.35-3.65,2.32-5.8,2.92-2.15.6-4.31.9-6.49.9h-20.2V1.63h18.23c1.89,0,3.9.2,6.02.6,2.12.4,4.06,1.16,5.8,2.28,1.75,1.12,3.21,2.71,4.38,4.77,1.18,2.06,1.76,4.73,1.76,8,0,3.61-.73,6.49-2.19,8.64-1.46,2.15-3.25,3.71-5.37,4.69v.17c1.15.29,2.29.8,3.44,1.55,1.15.75,2.18,1.71,3.1,2.88s1.66,2.59,2.24,4.26c.57,1.66.86,3.55.86,5.67Zm-62,17.37l-14.1-37.06h-.26l.34,37.06h-12.29V1.63h15.13l14.01,37.57h.26l-.26-37.57h11.86v60.87h-14.7Zm-54.51-47.63h-.34l-5.16,25.88h10.4l-4.9-25.88Zm9.11,47.63l-2.49-11.09h-13.67l-2.49,11.09h-13.76L246.66,1.63h17.28l14.7,60.87h-14.36Zm-47.2-48.4v12.38h14.53v11.78h-14.44v24.25h-13.93V1.63h29.66v12.47h-15.82Zm-49.78,48.4h-17.45L135.15,1.63h15.56l8.25,44.54h.17L167.31,1.63h14.96l-14.96,60.87Zm-51.33,0V1.63h13.84v60.87h-13.84Zm-20.46,0l-8.43-20.12-8.34,20.12h-14.36l14.96-31.9L65.6,1.63h14.36l7.48,18.48,7.57-18.48h14.1l-13.84,28.89,15.13,31.98h-14.87Zm-50.64,0V1.63h13.84v60.87h-13.84ZM24.67,20.98c0-2.75-.66-4.73-1.98-5.93-1.32-1.2-2.92-1.81-4.81-1.81h-4.38v15.91h4.38c1.89,0,3.5-.7,4.81-2.11,1.32-1.4,1.98-3.42,1.98-6.06Zm12.9-.26c0,3.38-.52,6.3-1.55,8.77-1.03,2.46-2.41,4.5-4.13,6.1-1.72,1.6-3.67,2.79-5.85,3.57s-4.38,1.16-6.62,1.16h-5.93v22.18H0V1.63h18.91c2.18,0,4.37.32,6.58.95,2.21.63,4.21,1.68,6.02,3.14,1.81,1.46,3.27,3.42,4.38,5.89,1.12,2.46,1.68,5.5,1.68,9.11Z"/>
    </clipPath>
    <clipPath id="clippath-1">
      <rect class="cls-2" x="-148.04" y="-409.17" width="764.22" height="1935.04"/>
    </clipPath>
  </defs>
  <g id="_レイヤー_1-2" data-name="レイヤー 1">
    <g>
      <path class="cls-3" d="m453.73,62.5l-8.43-20.12-8.34,20.12h-14.36l14.96-31.9-13.76-28.97h14.36l7.48,18.48,7.57-18.48h14.1l-13.84,28.89,15.13,31.98h-14.87Zm-45.15-30.61c0-2.64-.2-5.09-.6-7.35-.4-2.26-.99-4.23-1.76-5.89-.77-1.66-1.73-2.97-2.88-3.91s-2.49-1.42-4.04-1.42-2.91.47-4.08,1.42c-1.18.95-2.15,2.25-2.92,3.91-.77,1.66-1.35,3.63-1.72,5.89-.37,2.26-.56,4.71-.56,7.35s.19,5.1.56,7.39c.37,2.29.95,4.27,1.72,5.93.77,1.66,1.75,2.98,2.92,3.95,1.17.97,2.54,1.46,4.08,1.46s2.89-.49,4.04-1.46,2.11-2.29,2.88-3.95c.77-1.66,1.36-3.64,1.76-5.93.4-2.29.6-4.76.6-7.39Zm14.1,0c0,4.81-.54,9.21-1.63,13.2-1.09,3.98-2.64,7.38-4.64,10.19-2.01,2.81-4.46,4.99-7.35,6.53-2.89,1.55-6.15,2.32-9.76,2.32s-6.86-.77-9.76-2.32c-2.89-1.55-5.34-3.73-7.35-6.53-2.01-2.81-3.55-6.2-4.64-10.19-1.09-3.98-1.63-8.38-1.63-13.2s.53-9.19,1.59-13.11c1.06-3.93,2.59-7.28,4.6-10.06s4.46-4.93,7.35-6.45c2.89-1.52,6.18-2.28,9.84-2.28s6.86.76,9.76,2.28c2.89,1.52,5.34,3.67,7.35,6.45,2.01,2.78,3.55,6.13,4.64,10.06,1.09,3.93,1.63,8.3,1.63,13.11Zm-64.07,11.95c0-1.38-.21-2.54-.64-3.48-.43-.95-1-1.72-1.72-2.32-.72-.6-1.52-1.05-2.41-1.33s-1.76-.43-2.62-.43h-4.99v14.79h5.16c2.01,0,3.71-.6,5.12-1.81,1.4-1.2,2.11-3.01,2.11-5.42Zm-1.12-24.33c0-2.35-.66-4.01-1.98-4.99s-2.87-1.46-4.64-1.46h-4.64v13.15h4.73c1.66,0,3.17-.52,4.51-1.55,1.35-1.03,2.02-2.75,2.02-5.16Zm14.19,25.62c0,3.27-.53,6-1.59,8.21-1.06,2.21-2.45,3.98-4.17,5.33-1.72,1.35-3.65,2.32-5.8,2.92-2.15.6-4.31.9-6.49.9h-20.2V1.63h18.23c1.89,0,3.9.2,6.02.6,2.12.4,4.06,1.16,5.8,2.28,1.75,1.12,3.21,2.71,4.38,4.77,1.18,2.06,1.76,4.73,1.76,8,0,3.61-.73,6.49-2.19,8.64-1.46,2.15-3.25,3.71-5.37,4.69v.17c1.15.29,2.29.8,3.44,1.55,1.15.75,2.18,1.71,3.1,2.88s1.66,2.59,2.24,4.26c.57,1.66.86,3.55.86,5.67Zm-62,17.37l-14.1-37.06h-.26l.34,37.06h-12.29V1.63h15.13l14.01,37.57h.26l-.26-37.57h11.86v60.87h-14.7Zm-54.51-47.63h-.34l-5.16,25.88h10.4l-4.9-25.88Zm9.11,47.63l-2.49-11.09h-13.67l-2.49,11.09h-13.76L246.66,1.63h17.28l14.7,60.87h-14.36Zm-47.2-48.4v12.38h14.53v11.78h-14.44v24.25h-13.93V1.63h29.66v12.47h-15.82Zm-49.78,48.4h-17.45L135.15,1.63h15.56l8.25,44.54h.17L167.31,1.63h14.96l-14.96,60.87Zm-51.33,0V1.63h13.84v60.87h-13.84Zm-20.46,0l-8.43-20.12-8.34,20.12h-14.36l14.96-31.9L65.6,1.63h14.36l7.48,18.48,7.57-18.48h14.1l-13.84,28.89,15.13,31.98h-14.87Zm-50.64,0V1.63h13.84v60.87h-13.84ZM24.67,20.98c0-2.75-.66-4.73-1.98-5.93-1.32-1.2-2.92-1.81-4.81-1.81h-4.38v15.91h4.38c1.89,0,3.5-.7,4.81-2.11,1.32-1.4,1.98-3.42,1.98-6.06Zm12.9-.26c0,3.38-.52,6.3-1.55,8.77-1.03,2.46-2.41,4.5-4.13,6.1-1.72,1.6-3.67,2.79-5.85,3.57s-4.38,1.16-6.62,1.16h-5.93v22.18H0V1.63h18.91c2.18,0,4.37.32,6.58.95,2.21.63,4.21,1.68,6.02,3.14,1.81,1.46,3.27,3.42,4.38,5.89,1.12,2.46,1.68,5.5,1.68,9.11Z"/>
      <g class="cls-5">
        <g>
          <rect class="cls-2" x="-148.04" y="-409.17" width="764.22" height="1935.04"/>
          <g class="cls-4">
            <rect class="cls-2" x="-2.99" y="-2.99" width="474.58" height="70.11"/>
          </g>
        </g>
      </g>
    </g>
  </g>
</svg>